<svg width="323" height="192" viewBox="0 0 323 192" fill="none" xmlns="http://www.w3.org/2000/svg">
<path d="M154.841 30.0767L152.371 23.0052H152.322C152.392 24.0544 152.421 25.0406 152.421 25.9639V30.0767H151.161V21.6343H153.124L155.488 28.37H155.523L157.958 21.6343H159.928V30.0767H158.591V25.88C158.591 25.4533 158.591 24.9077 158.591 24.2293C158.591 23.5508 158.633 23.1451 158.647 23.0052H158.598L156.072 30.0767H154.841Z" fill="white"/>
<path d="M166.745 30.0767L164.276 23.0052H164.226C164.297 24.0544 164.325 25.0406 164.325 25.9639V30.0767H163.065V21.6343H165.028L167.392 28.37H167.449L169.883 21.6343H171.853V30.0767H170.516V25.88C170.516 25.4533 170.516 24.9077 170.516 24.2293C170.516 23.5508 170.558 23.1451 170.572 23.0052H170.53L167.99 30.0767H166.745Z" fill="white"/>
<path d="M160.286 43.5127H158.682L156.571 40.0154L154.419 43.5127H152.927L155.741 39.1271L153.096 35.0493H154.644L156.614 38.2528L158.584 35.0493H160.089L157.416 39.1691L160.286 43.5127Z" fill="white"/>
<path d="M168.673 35.0493H170.08L167.097 43.5127H165.634L162.657 35.0493H164.065L165.838 40.3092C165.955 40.6279 166.056 40.9524 166.14 41.2814C166.246 41.6801 166.309 41.9809 166.344 42.1628C166.393 41.869 166.471 41.5333 166.576 41.1486C166.682 40.7639 166.766 40.4491 166.83 40.2882L168.673 35.0493Z" fill="white"/>
<path d="M161.496 192L160.99 191.853L0 144.402V47.5978L161.496 0L162.01 0.146885L323 47.5978V144.402L161.496 192ZM3.58115 141.744L161.496 188.286L319.419 141.744V50.2557L161.496 3.7141L3.58115 50.2557V141.744Z" fill="#B88C50"/>
<path d="M222.109 152.481C221.676 152.483 221.256 152.33 220.928 152.048C220.6 151.767 220.386 151.378 220.324 150.952C220.262 150.525 220.357 150.091 220.592 149.73C220.827 149.368 221.186 149.103 221.602 148.984L298.727 126.251V65.497L216.593 41.3938C216.367 41.3277 216.157 41.218 215.974 41.0712C215.792 40.9243 215.64 40.7431 215.527 40.5378C215.415 40.3326 215.344 40.1073 215.319 39.875C215.295 39.6426 215.316 39.4077 215.383 39.1835C215.449 38.9594 215.559 38.7505 215.707 38.5687C215.855 38.387 216.037 38.2359 216.244 38.1242C216.45 38.0125 216.677 37.9423 216.91 37.9177C217.144 37.893 217.38 37.9143 217.606 37.9805L302.308 62.839V128.944L222.615 152.432C222.45 152.472 222.279 152.488 222.109 152.481Z" fill="#B88C50"/>
<path d="M101.257 152.691C101.086 152.692 100.915 152.668 100.751 152.621L20.6919 129.126V63.0208L105.957 37.8894C106.185 37.8156 106.426 37.7882 106.665 37.809C106.904 37.8297 107.137 37.898 107.349 38.01C107.56 38.1219 107.747 38.2751 107.899 38.4605C108.05 38.6459 108.162 38.8596 108.228 39.0889C108.294 39.3183 108.313 39.5585 108.284 39.7953C108.254 40.0321 108.178 40.2606 108.058 40.4672C107.938 40.6738 107.777 40.8543 107.585 40.9978C107.394 41.1414 107.175 41.2451 106.942 41.3028L24.273 65.6787V126.468L101.764 149.207C102.191 149.316 102.564 149.577 102.809 149.942C103.054 150.306 103.155 150.748 103.092 151.183C103.03 151.617 102.807 152.013 102.468 152.294C102.13 152.575 101.698 152.721 101.257 152.705V152.691Z" fill="#B88C50"/>
<path d="M161.79 92.6546L158.5 94.0605L158.761 94.6646L162.051 93.2586L161.79 92.6546Z" fill="#1D1D1B"/>
<path d="M171.185 142.514C170.859 142.514 170.54 142.426 170.262 142.259C169.983 142.093 169.755 141.855 169.602 141.569C168.687 139.856 165.633 134.127 161.496 126.251C157.17 134.505 154.039 140.373 153.398 141.569C153.164 141.966 152.785 142.257 152.34 142.382C151.895 142.507 151.418 142.457 151.01 142.241C150.602 142.025 150.293 141.661 150.148 141.225C150.003 140.788 150.033 140.313 150.232 139.898C150.936 138.562 154.777 131.392 159.913 121.572L161.496 118.536L163.087 121.572C168.012 130.98 171.74 137.974 172.768 139.898C172.912 140.169 172.983 140.473 172.974 140.78C172.966 141.087 172.877 141.386 172.718 141.649C172.559 141.912 172.334 142.13 172.065 142.282C171.797 142.433 171.493 142.513 171.185 142.514ZM179.409 136.274C179.287 136.273 179.164 136.261 179.043 136.239C176.489 135.722 172.606 133.882 168.617 128.084C164.592 121.88 166.027 115.207 166.668 113.039L165.598 110.57L166.042 109.814C183.905 75.1772 194.451 52.5918 196.555 44.4922C199.538 33.0001 196.633 27.0408 194.585 24.4808L156.332 113.032C156.973 115.2 158.443 121.866 154.412 128.035C150.394 133.875 146.511 135.729 143.95 136.232C143.487 136.315 143.011 136.214 142.622 135.951C142.234 135.688 141.965 135.285 141.873 134.827C141.781 134.369 141.873 133.893 142.13 133.502C142.387 133.111 142.787 132.836 143.246 132.735C144.808 132.42 147.946 131.126 151.436 126.055C155.207 120.25 152.779 113.619 152.751 113.556L152.498 112.857L153.455 110.66C140.981 86.4594 125.748 55.7883 123.04 45.3525C118.157 26.5302 127.725 20.1722 128.133 19.8854L129.913 18.7383L161.532 91.9431L193.192 18.7383L194.888 19.9274C195.296 20.1861 204.864 26.5722 199.982 45.3945C197.273 55.8303 182.041 86.5013 169.566 110.702L170.523 112.899L170.27 113.598C170.27 113.661 167.843 120.334 171.614 126.139C175.075 131.168 178.213 132.434 179.775 132.777C180.182 132.89 180.536 133.142 180.775 133.489C181.014 133.835 181.121 134.255 181.079 134.673C181.037 135.091 180.848 135.481 180.545 135.774C180.242 136.067 179.845 136.244 179.423 136.274H179.409ZM128.443 24.4808C126.403 27.0338 123.483 33.0001 126.473 44.4991C128.527 52.431 138.694 74.2539 155.882 107.674L158.302 93.5868L128.443 24.4808Z" fill="white"/>
<path d="M60.9711 113.927C60.9711 115.711 60.4575 116.935 59.4302 117.613C58.403 118.292 56.8552 118.62 54.8008 118.62H47.9129V71.0576H54.8008C56.8552 71.0576 58.403 71.4004 59.4302 72.0718C60.4575 72.7433 60.9711 73.9743 60.9711 75.7579V91.3558C61.013 91.8399 60.9364 92.3269 60.7477 92.7752C60.559 93.2235 60.2639 93.6196 59.8876 93.9297C58.9111 94.5718 57.7987 94.9811 56.6371 95.1258V95.3217C57.7788 95.3579 58.8944 95.67 59.8876 96.2309C60.2719 96.528 60.5732 96.9179 60.7629 97.3636C60.9526 97.8093 61.0243 98.2959 60.9711 98.777V113.927ZM56.2853 76.2755C56.2853 74.9676 55.7365 74.3171 54.646 74.3171H52.5353V93.4331H54.646C55.7365 93.4331 56.2853 92.8036 56.2853 91.5446V76.2755ZM56.2853 98.8539C56.2853 97.5879 55.7365 96.9584 54.646 96.9584H52.5353V115.032H54.646C55.7365 115.032 56.2853 114.403 56.2853 113.144V98.8539Z" fill="white"/>
<path d="M87.819 118.62H82.9574L82.5001 109.947H79.0245L78.6305 118.62H73.4452L77.1178 71.0576H84.1535L87.819 118.62ZM79.2215 106.814H82.3172L80.7975 76.94L79.2215 106.814Z" fill="white"/>
<path d="M113.218 108.639C113.218 109.29 113.218 110.129 113.253 111.15C113.288 112.172 113.316 113.2 113.38 114.221C113.443 115.242 113.527 116.165 113.612 117.019C113.636 117.576 113.748 118.125 113.942 118.648H109.151C108.957 118.161 108.857 117.641 108.856 117.117C108.785 116.315 108.729 115.382 108.687 114.319C108.645 113.277 108.609 112.22 108.588 111.185C108.567 110.15 108.588 109.269 108.588 108.576V98.8539C108.588 97.5879 108.039 96.9584 106.942 96.9584H104.831V118.641H100.174V71.0786H107.062C109.116 71.0786 110.664 71.4213 111.691 72.0928C112.718 72.7643 113.232 73.9953 113.232 75.7789V91.3768C113.274 91.8609 113.197 92.3479 113.008 92.7962C112.82 93.2445 112.525 93.6406 112.148 93.9507C111.173 94.5978 110.061 95.0119 108.898 95.1608V95.3566C110.04 95.3929 111.155 95.705 112.148 96.2659C112.533 96.563 112.834 96.9529 113.024 97.3986C113.213 97.8443 113.285 98.3309 113.232 98.8119L113.218 108.639ZM108.56 76.2756C108.56 74.9676 108.011 74.3171 106.914 74.3171H104.803V93.4331H106.914C108.011 93.4331 108.56 92.8036 108.56 91.5446V76.2756Z" fill="white"/>
<path d="M225.95 113.927C225.95 115.711 225.436 116.935 224.409 117.613C223.382 118.292 221.834 118.62 219.78 118.62H212.885V71.0576H219.78C221.834 71.0576 223.375 71.4004 224.409 72.0718C225.443 72.7433 225.95 73.9743 225.95 75.7579V91.3558C225.991 91.8398 225.914 92.3265 225.725 92.7745C225.536 93.2226 225.242 93.6189 224.867 93.9297C223.891 94.5684 222.782 94.9774 221.623 95.1258V95.3217C222.764 95.3607 223.879 95.6726 224.874 96.2309C225.257 96.5289 225.558 96.919 225.747 97.3644C225.937 97.8099 226.009 98.296 225.957 98.777L225.95 113.927ZM221.285 76.2755C221.285 74.9676 220.737 74.3171 219.646 74.3171H217.535V93.4331H219.646C220.737 93.4331 221.285 92.8036 221.285 91.5446V76.2755ZM221.285 98.8539C221.285 97.5879 220.737 96.9584 219.646 96.9584H217.535V115.032H219.646C220.737 115.032 221.285 114.403 221.285 113.144V98.8539Z" fill="white"/>
<path d="M249.71 96.2379H243.997V114.711H250.329V118.62H239.339V71.0576H250.301V74.9746H243.968V92.5938H249.681L249.71 96.2379Z" fill="white"/>
<path d="M275.967 108.639C275.967 109.29 275.967 110.129 275.967 111.15C275.967 112.172 276.037 113.2 276.1 114.221C276.164 115.242 276.241 116.165 276.333 117.019C276.36 117.575 276.469 118.124 276.656 118.648H271.865C271.679 118.158 271.579 117.64 271.569 117.117C271.506 116.312 271.45 115.389 271.408 114.319C271.365 113.249 271.33 112.22 271.309 111.185C271.288 110.15 271.274 109.269 271.274 108.576V98.8539C271.274 97.5879 270.725 96.9584 269.635 96.9584H267.524V118.641H262.859V71.0786H269.754C271.809 71.0786 273.349 71.4213 274.377 72.0928C275.404 72.7643 275.924 73.9953 275.924 75.7789V91.3768C275.965 91.8608 275.888 92.3475 275.699 92.7955C275.511 93.2436 275.216 93.6399 274.841 93.9507C273.865 94.5953 272.753 95.0092 271.59 95.1608V95.3566C272.732 95.3957 273.847 95.7076 274.841 96.2659C275.224 96.5639 275.525 96.954 275.714 97.3994C275.904 97.8449 275.976 98.331 275.924 98.8119L275.967 108.639ZM271.302 76.2756C271.302 74.9676 270.753 74.3171 269.663 74.3171H267.552V93.4331H269.663C270.753 93.4331 271.302 92.8036 271.302 91.5446V76.2756Z" fill="white"/>
<path d="M138.23 167.512C134.737 167.512 131.323 166.482 128.418 164.553C125.514 162.624 123.251 159.882 121.914 156.674C120.578 153.466 120.228 149.936 120.909 146.531C121.591 143.125 123.273 139.997 125.742 137.542C128.212 135.086 131.359 133.414 134.784 132.737C138.21 132.059 141.761 132.407 144.988 133.736C148.214 135.065 150.972 137.315 152.913 140.202C154.853 143.089 155.889 146.483 155.889 149.956C155.883 154.61 154.021 159.072 150.711 162.364C147.4 165.655 142.911 167.506 138.23 167.512ZM138.23 135.967C135.446 135.967 132.726 136.787 130.412 138.324C128.098 139.861 126.294 142.046 125.229 144.602C124.164 147.158 123.886 149.971 124.429 152.685C124.972 155.398 126.312 157.891 128.28 159.847C130.248 161.804 132.755 163.136 135.484 163.676C138.214 164.216 141.043 163.939 143.614 162.88C146.186 161.821 148.383 160.028 149.929 157.728C151.476 155.427 152.301 152.722 152.301 149.956C152.301 148.119 151.937 146.3 151.23 144.602C150.523 142.905 149.486 141.363 148.179 140.064C146.873 138.765 145.322 137.735 143.614 137.031C141.907 136.328 140.077 135.967 138.23 135.967Z" fill="white"/>
<path d="M184.763 167.512C181.271 167.512 177.856 166.482 174.952 164.553C172.048 162.624 169.785 159.882 168.448 156.674C167.112 153.466 166.762 149.936 167.443 146.531C168.125 143.125 169.807 139.997 172.276 137.542C174.746 135.086 177.893 133.414 181.318 132.737C184.744 132.059 188.295 132.407 191.521 133.736C194.748 135.065 197.506 137.315 199.447 140.202C201.387 143.089 202.423 146.483 202.423 149.956C202.417 154.61 200.555 159.072 197.244 162.364C193.934 165.655 189.445 167.506 184.763 167.512ZM184.763 135.967C181.98 135.967 179.26 136.787 176.946 138.324C174.632 139.861 172.828 142.046 171.763 144.602C170.698 147.158 170.42 149.971 170.962 152.685C171.505 155.398 172.846 157.891 174.813 159.847C176.781 161.804 179.289 163.136 182.018 163.676C184.748 164.216 187.577 163.939 190.148 162.88C192.719 161.821 194.917 160.028 196.463 157.728C198.009 155.427 198.835 152.722 198.835 149.956C198.835 148.119 198.471 146.3 197.764 144.602C197.056 142.905 196.02 141.363 194.713 140.064C193.407 138.765 191.855 137.735 190.148 137.031C188.441 136.328 186.611 135.967 184.763 135.967Z" fill="white"/>
<path d="M192.826 171.604C192.518 171.605 192.215 171.527 191.947 171.377C191.678 171.228 191.453 171.012 191.292 170.75L188.302 165.854C188.18 165.654 188.099 165.433 188.063 165.202C188.028 164.971 188.038 164.735 188.094 164.508C188.15 164.281 188.25 164.067 188.389 163.879C188.528 163.69 188.703 163.531 188.904 163.41C189.105 163.288 189.328 163.208 189.56 163.172C189.792 163.137 190.03 163.147 190.258 163.202C190.486 163.258 190.701 163.358 190.891 163.496C191.081 163.634 191.241 163.808 191.363 164.008L194.36 168.904C194.525 169.174 194.615 169.483 194.62 169.798C194.625 170.114 194.546 170.426 194.389 170.701C194.233 170.976 194.006 171.205 193.731 171.363C193.456 171.522 193.144 171.605 192.826 171.604Z" fill="white"/>
</svg>
